HIERARCHY
ROOT Hips
{
	OFFSET 0.00000 0.00000 0.00000
	CHANNELS 6 Xposition Yposition Zposition Zrotation Yrotation Xrotation 
	JOINT LHipJoint
	{
		OFFSET 0 0 0
		CHANNELS 3 Zrotation Yrotation Xrotation
		JOINT LeftHip
		{
			OFFSET 1.60223 -1.58443 0.78595
			CHANNELS 3 Zrotation Yrotation Xrotation
			JOINT LeftKnee
			{
				OFFSET 2.21690 -6.09089 0.00000
				CHANNELS 3 Zrotation Yrotation Xrotation
				JOINT LeftAnkle
				{
					OFFSET 2.34805 -6.45122 0.00000
					CHANNELS 3 Zrotation Yrotation Xrotation
					JOINT LeftToe
					{
						OFFSET 0.35452 -0.97402 1.38549
						CHANNELS 3 Zrotation Yrotation Xrotation
						End Site
						{
							OFFSET 0.00000 -0.00000 0.82816
						}
					}
				}
			}
		}
	}
	JOINT RHipJoint
	{
		OFFSET 0 0 0
		CHANNELS 3 Zrotation Yrotation Xrotation
		JOINT RightHip
		{
			OFFSET -1.56524 -1.58443 0.78595
			CHANNELS 3 Zrotation Yrotation Xrotation
			JOINT RightKnee
			{
				OFFSET -2.15558 -5.92241 0.00000
				CHANNELS 3 Zrotation Yrotation Xrotation
				JOINT RightAnkle
				{
					OFFSET -2.35077 -6.45870 0.00000
					CHANNELS 3 Zrotation Yrotation Xrotation
					JOINT RightToe
					{
						OFFSET -0.26910 -0.73935 1.33295
						CHANNELS 3 Zrotation Yrotation Xrotation
						End Site
						{
							OFFSET -0.00000 -0.00000 0.75962
						}
					}
				}
			}
		}
	}
	JOINT lowerback
	{
		OFFSET 0 0 0
		CHANNELS 3 Zrotation Yrotation Xrotation
		JOINT Chest
		{
			OFFSET -0.05489 1.97104 -0.02993
			CHANNELS 3 Zrotation Yrotation Xrotation
			JOINT Chest2
			{
				OFFSET -0.00702 1.94230 0.13626
				CHANNELS 3 Zrotation Yrotation Xrotation
				JOINT lowerneck
				{
					OFFSET 0 0 0
					CHANNELS 3 Zrotation Yrotation Xrotation
					JOINT Neck
					{
						OFFSET -0.07858 1.62869 -0.02510
						CHANNELS 3 Zrotation Yrotation Xrotation
						JOINT Head
						{
							OFFSET 0.13978 1.59213 -0.29859
							CHANNELS 3 Zrotation Yrotation Xrotation
							End Site
							{
								OFFSET 0.05353 1.64420 -0.10000
							}
						}
					}
				}
				JOINT LeftCollar
				{
					OFFSET 0 0 0
					CHANNELS 3 Zrotation Yrotation Xrotation
					JOINT LeftShoulder
					{
						OFFSET 3.48263 1.15278 0.52941
CHANNELS 3 Zrotation Xrotation Yrotation
						JOINT LeftElbow
						{
OFFSET 0 -4.592070 -0.000000
CHANNELS 3 Zrotation Xrotation Yrotation
							JOINT LeftWrist
							{
OFFSET 0 -2.981090 -0.000000
CHANNELS 3 Zrotation Xrotation Yrotation
								JOINT lhand
								{
									OFFSET 0 0 0
CHANNELS 3 Zrotation Xrotation Yrotation
									JOINT LFingers
									{
OFFSET 0 -0.480200 -0.000000
CHANNELS 3 Zrotation Xrotation Yrotation
										End Site
										{
OFFSET 0 -0.387150 -0.000000
										}
									}
								}
								JOINT LThumb
								{
OFFSET 0 0.000000 0.000000
CHANNELS 3 Zrotation Xrotation Yrotation
									End Site
									{
OFFSET 0 -0.393060 0.393060
									}
								}
							}
						}
					}
				}
				JOINT RightCollar
				{
					OFFSET 0 0 0
					CHANNELS 3 Zrotation Yrotation Xrotation
					JOINT RightShoulder
					{
						OFFSET -3.52496 1.12722 0.24548
CHANNELS 3 Zrotation Xrotation Yrotation
						JOINT RightElbow
						{
OFFSET 0 -4.765080 -0.000000
CHANNELS 3 Zrotation Xrotation Yrotation
							JOINT RightWrist
							{
OFFSET 0 -2.789020 -0.000000
CHANNELS 3 Zrotation Xrotation Yrotation
								JOINT rhand
								{
									OFFSET 0 0 0
CHANNELS 3 Zrotation Xrotation Yrotation
									JOINT RFingers
									{
OFFSET 0 -0.721300 -0.000000
CHANNELS 3 Zrotation Xrotation Yrotation
										End Site
										{
OFFSET 0 -0.581530 -0.000000
										}
									}
								}
								JOINT RThumb
								{
OFFSET 0 0.000000 0.000000
CHANNELS 3 Zrotation Xrotation Yrotation
									End Site
									{
OFFSET 0 -0.590410 0.590410
									}
								}
							}
						}
					}
				}
			}
		}
	}
}
MOTION
Frames: 6
Frame Time: 0.008333333333333333
25.411400 15.914400 -1.527600 6.183700 -80.637100 -0.945100 0.000000 0.000000 0.000000 -18.393000 -7.011800 -12.977700 3.077100 10.818800 31.671300 1.907700 -6.386200 -24.863100 2.236400 -9.342000 -26.871200 0.000000 0.000000 0.000000 18.074700 3.110500 -8.001700 -1.434900 -7.573700 21.426600 -1.796900 -5.480700 -27.783000 -0.626100 5.063500 -14.089700 -6.651600 1.557800 -5.046700 0.125600 2.209800 -4.277500 3.927000 1.235500 -1.868100 -13.315800 -5.690400 0.999800 25.114800 -9.650400 5.432400 9.884600 -4.811700 3.308200 0.000000 0.000000 0.000000 -9.384100 7.219800 19.253400 28.043800 -39.156500 10.151300 15.565500 -14.598700 -35.714900 0.000000 0.000000 0.000000 -7.125000 0.000000 0.000000 -23.246700 65.288700 11.686700 0.000000 0.000000 0.000000 7.713000 4.752400 -13.434100 -13.621700 -22.191300 -2.683600 23.409000 25.679700 -33.249200 0.000000 0.000000 0.000000 7.125000 0.000000 -0.000000 29.429500 -2.082000 35.483400
25.413320 15.915220 -1.511902 5.688321 -80.743445 -0.279920 0.000000 0.000000 0.000000 -18.364666 -7.288062 -13.116420 3.092199 10.842858 31.751714 1.926839 -6.108173 -25.016995 2.205939 -9.282497 -26.683211 0.000000 0.000000 0.000000 18.075518 3.003933 -8.260017 -1.431281 -7.564622 21.399186 -1.782041 -5.337008 -27.603570 -0.618980 5.034941 -14.008222 -6.139890 1.612703 -5.006511 -0.005545 2.255528 -4.371767 3.502276 1.247246 -1.963046 -13.729788 -5.474949 0.323684 25.331083 -9.458177 6.215285 10.042161 -4.650356 3.643467 0.000000 0.000000 0.000000 -9.454751 7.567042 16.745108 26.755923 -37.944897 9.348848 0.298458 -18.782953 -41.225386 0.000000 0.000000 0.000000 -7.125000 0.000000 0.000000 -46.505798 65.315428 25.239564 0.000000 0.000000 0.000000 8.083040 4.815066 -12.969299 -13.779997 -22.419347 -2.743631 23.413415 26.540636 -33.353885 0.000000 0.000000 0.000000 7.125000 0.000000 0.000000 29.420353 -2.178445 35.519409
25.401783 15.913779 -1.522259 5.324845 -80.680550 -0.044869 0.000000 0.000000 0.000000 -18.219661 -7.021718 -13.013593 3.095601 10.848281 31.769784 1.916029 -6.447765 -24.915089 2.217689 -9.305518 -26.755712 0.000000 0.000000 0.000000 18.275461 3.261035 -7.855388 -1.415805 -7.525292 21.281175 -1.785982 -5.794098 -27.881546 -0.567348 4.824032 -13.407452 -5.942470 1.462340 -4.727917 -0.050530 2.028200 -4.418751 3.330484 1.133491 -2.132340 -13.762903 -5.032036 0.045254 25.155790 -8.870175 6.699220 10.027768 -4.327625 3.697749 0.000000 0.000000 0.000000 -9.667222 7.978017 14.595188 25.573152 -36.783032 8.631139 -22.108064 -28.098409 -41.017836 0.000000 0.000000 0.000000 -7.125000 0.000000 0.000000 -65.492775 59.148512 30.262937 0.000000 0.000000 0.000000 8.281209 4.721578 -12.195492 -13.842483 -22.508993 -2.767489 23.647641 26.949139 -32.826872 0.000000 0.000000 0.000000 7.125000 0.000000 0.000000 29.581785 -1.722271 35.541004
25.392983 15.918278 -1.515644 4.976840 -80.572878 0.412621 0.000000 0.000000 0.000000 -18.138017 -6.828628 -13.193618 3.091042 10.841003 31.745510 1.905161 -6.804845 -24.815352 2.231507 -9.332494 -26.841038 0.000000 0.000000 0.000000 18.320799 3.110029 -7.885302 -1.394907 -7.471857 21.121051 -1.765885 -5.898166 -27.803085 -0.588490 4.911499 -13.656223 -5.528034 1.432663 -4.563947 -0.148024 1.954725 -4.594892 2.988236 1.092058 -2.378027 -13.289003 -4.466055 -0.541275 24.324676 -8.048911 7.418485 9.689640 -3.855896 3.778890 0.000000 0.000000 0.000000 -9.848509 8.421515 12.329624 24.408239 -35.592276 7.943172 -12.081505 -13.840033 -36.061596 0.000000 0.000000 0.000000 -7.125000 0.000000 0.000000 -50.846892 58.553705 20.121354 0.000000 0.000000 0.000000 8.386607 4.867551 -11.186500 -14.034283 -22.783673 -2.841415 24.096044 26.426706 -32.586113 0.000000 0.000000 0.000000 7.125000 0.000000 0.000000 29.808224 -1.555667 35.823767
25.384824 15.923338 -1.505544 4.377998 -80.211897 1.241724 0.000000 0.000000 0.000000 -18.013335 -7.184056 -13.354489 3.086424 10.833686 31.721060 1.881376 -6.995746 -24.642856 2.174223 -9.219845 -26.485495 0.000000 0.000000 0.000000 18.386598 2.710011 -8.094411 -1.371273 -7.410914 20.938500 -1.751089 -5.953434 -27.733239 -0.627207 5.067807 -14.101997 -5.206136 1.547407 -4.646814 -0.179668 2.095246 -4.734648 2.777939 1.155912 -2.474529 -12.009126 -3.489119 -1.088585 22.689024 -6.476042 7.628493 8.955298 -3.024396 3.522139 0.000000 0.000000 0.000000 -9.969823 8.620843 9.593663 23.260933 -34.372442 7.285311 -1.766770 -0.747262 -32.153782 0.000000 0.000000 0.000000 -7.125000 0.000000 0.000000 -37.300024 57.982357 13.035770 0.000000 0.000000 0.000000 8.407567 4.928120 -10.554206 -14.317768 -23.187148 -2.952084 24.974767 25.279194 -31.726587 0.000000 0.000000 0.000000 7.125000 0.000000 0.000000 30.296741 -0.882492 36.261118
25.373608 15.926698 -1.497504 4.506294 -79.486581 1.152451 0.000000 0.000000 0.000000 -18.040425 -7.365268 -13.359970 3.071611 10.810017 31.641857 1.830834 -7.552540 -24.273045 2.076152 -9.023006 -25.867331 0.000000 0.000000 0.000000 18.337485 2.132276 -8.070920 -1.348013 -7.350234 20.757203 -1.734811 -6.216856 -27.772934 -0.602930 4.970520 -13.824641 -5.060580 1.777463 -4.533269 -0.190021 2.388160 -4.823405 2.684627 1.303478 -2.648462 -9.902875 -1.595774 -1.431412 20.139145 -3.499158 7.228666 7.818751 -1.527818 2.843411 0.000000 0.000000 0.000000 -10.471506 9.441070 3.388588 22.129238 -33.122836 6.656361 20.277694 25.119794 -36.997718 0.000000 0.000000 0.000000 -7.125000 0.000000 0.000000 -19.250791 67.833403 10.715996 0.000000 0.000000 0.000000 8.409494 5.104732 -10.448682 -14.585932 -23.566104 -3.058473 25.570551 24.652746 -31.173967 0.000000 0.000000 0.000000 7.125000 0.000000 0.000000 30.626146 -0.460175 36.570679
